PathFileType	4	(X/Y/Z)	Patient4_TMGait_0pt6_01_right_21.trc.trc
DataRate	CameraRate	NumFrames	NumMarkers	Units	OrigDataRate	OrigDataStartFrame	OrigNumFrames
81.871345029240	81.871345029240	4	33	mm	81.871345029240	36	       141
Frame#	Time	Sacral			L.Shoulder			Chest			R.Shoulder			Neck			R.ASIS			L.ASIS			R.Thigh.Superior			R.Thigh.Lateral			R.Thigh.Inferior			R.Patella			L.Thigh.Superior			L.Thigh.Lateral			L.Thigh.Inferior			L.Patella			L.Shank.Superior			L.Shank.Lateral			L.Shank.Inferior			R.Shank.Superior			R.Shank.Lateral			R.Shank.Inferior			R.Heel			R.Midfoot.Superior			R.Midfoot.Lateral			R.Toe			L.Heel			L.Midfoot.Lateral			L.Midfoot.Superior			L.Toe			L.Elbow			L.Wrist			R.Elbow			R.Wrist			
		X1	Y1	Z1	X2	Y2	Z2	X3	Y3	Z3	X4	Y4	Z4	X5	Y5	Z5	X6	Y6	Z6	X7	Y7	Z7	X8	Y8	Z8	X9	Y9	Z9	X10	Y10	Z10	X11	Y11	Z11	X12	Y12	Z12	X13	Y13	Z13	X14	Y14	Z14	X15	Y15	Z15	X16	Y16	Z16	X17	Y17	Z17	X18	Y18	Z18	X19	Y19	Z19	X20	Y20	Z20	X21	Y21	Z21	X22	Y22	Z22	X23	Y23	Z23	X24	Y24	Z24	X25	Y25	Z25	X26	Y26	Z26	X27	Y27	Z27	X28	Y28	Z28	X29	Y29	Z29	X30	Y30	Z30	X31	Y31	Z31	X32	Y32	Z32	X33	Y33	Z33	

36	25.367500000000	715.120534662248	1000.678662946825	505.771568766893	879.781702614996	1436.196142148699	334.396863346572	982.058489772216	1368.612391024600	495.729214401183	890.973231791477	1432.574087807222	668.668737306492	854.780371330645	1491.824212778947	488.396642543837	942.368908478640	943.051349724126	626.895343859479	930.444234116329	958.442133590796	353.179378354992	1000.774445536243	748.810434512021	596.139238332860	928.943016018350	634.188530296948	655.267453667739	1010.656422496984	588.765717069514	574.853262709930	1018.866103794930	500.393841265194	581.074571061528	957.121811150862	730.137603113157	377.490435341431	858.322503509942	621.229569611267	316.675403395321	938.394228073336	531.686828461362	373.358784212002	925.349444127076	448.082802024743	373.713767427948	857.210368660891	392.073110459904	371.793640222639	717.312554195146	344.877614332952	326.394369451508	705.434680419306	219.907418488299	389.419019489786	997.564485625420	410.256313785988	587.807550884965	933.285577929101	300.860529258936	646.982612491371	983.945666758267	210.029333183405	584.333682838557	861.633896404236	42.195482260647	549.197099244439	1031.052150757649	97.524187291599	589.871473780061	943.075767074816	36.868628857145	626.498678949697	1151.257567926008	45.998067364690	620.296433170048	516.455599794069	145.314532047369	431.811577723589	577.091631874017	102.802256871305	353.165964349349	679.621376461086	121.312151251691	373.298237581811	766.634333828373	32.098057264427	350.037304529134	911.980776019688	1085.139771468584	210.809418459474	1135.704305308930	951.818453965248	216.827357169353	831.916571595235	1084.360430287942	774.792058222139	894.204457202913	830.483381147789	774.817525681597	
37	25.379714285714	715.199840923316	1001.436174315122	508.732413916057	878.181734526887	1437.070352726109	336.104573693660	981.587766381510	1369.811179188191	496.863914680485	891.424194017508	1433.574776994901	670.299599458872	854.094587550008	1492.652749709211	490.297650137685	942.923604558358	944.108128150501	628.571839942117	930.011452893861	959.521912748555	355.023938197274	999.107503455593	748.162853786059	598.373867423560	925.503095583117	634.362601275412	656.990615118847	1006.598443436109	588.040656587582	576.491066791400	1013.572004667429	499.875052874272	582.154788918828	961.970934026138	732.872704854306	379.597685112122	867.848221212008	621.415666167776	317.648867859545	950.761091233530	533.734653100550	374.381952874438	938.929809756615	448.839129190811	373.938170169715	868.782635935294	392.986199122291	372.172795730524	727.182396963505	350.926681315445	326.677245440409	710.972992876965	226.371017684241	389.367111372872	991.973747127345	409.971186769081	588.849619025620	927.333303435243	300.795534596348	647.801542979988	977.369511103620	209.842940054330	584.839401430391	854.449597761292	42.191757028707	549.402290712326	1023.858493192548	97.553761202512	590.165426085271	935.863397494385	36.823387045590	626.692926079091	1144.053404116875	45.871398572974	620.575156324445	519.100581768444	161.427931701479	431.321746840397	577.510879238681	115.258048909057	352.831097678484	681.141955257118	127.541860725424	373.193320431065	762.061028701445	31.497833254355	350.204342116313	906.453037142811	1084.657879296797	214.890247232711	1123.065359244820	939.228624583242	220.389914283780	840.233525152512	1084.318751717939	778.606580066704	915.388983280209	833.935390386598	778.139974133848	
38	25.391928571429	715.068034031979	1002.118612254894	511.638857150527	876.440117688721	1437.741785781436	337.664834659805	981.083438932332	1370.787781171425	497.783855189209	891.982902640158	1434.367462814314	671.800483966961	853.441382202743	1493.301862922721	492.112793954112	943.231516915555	944.960731723955	630.083761745651	929.311704073360	960.399813553689	356.711181946953	997.180030287307	747.427742597174	600.593672349028	921.844391807910	634.455545455779	658.670105432462	1002.347386586104	587.298875027793	578.118996983898	1008.112785209698	499.345888326429	583.249735169202	966.624204274130	735.791388439437	381.751901086824	877.368530345823	621.959650999490	318.574923490116	962.911777258955	536.309013498611	375.619314130537	952.474108530826	450.218784172986	374.519980715383	880.642874250702	394.353964760189	372.724361476347	737.665745203256	356.999522499401	326.983635951781	717.414300309419	232.949446742778	389.436201006033	986.238256612707	409.653975517601	589.866679448006	921.237286166185	300.680447092989	648.577541438797	970.700287161892	209.622318601961	585.322526116083	847.165606690104	42.190768545773	549.595266365370	1016.606493869418	97.530236257309	590.435588360360	928.544515905737	36.758563742585	626.873146270507	1136.759732076616	45.644793839462	620.825014505661	523.160776128150	176.923805877346	430.851977866800	579.494332606336	127.610972550982	352.476967406846	683.917621082423	134.117446714613	373.177895108325	759.100640964107	31.318171612538	350.263928717342	901.019440169186	1084.037418359139	218.818115638183	1109.583757002528	926.633726886786	223.909570168455	848.549731340746	1084.398751081404	782.433589847311	936.893368148541	838.317153600206	781.297997741936	
39	25.404142857143	714.724127632192	1002.735712853114	514.459054507190	874.593945493557	1438.228306674939	339.075997001607	980.554515718657	1371.544416002464	498.497410745025	892.652500712115	1434.979996976312	673.165473204333	852.834828717039	1493.799444036086	493.817538250090	943.281852441066	945.618132783759	631.444250239533	928.319365455973	961.082585644472	358.239070154337	995.047276901062	746.659990703254	602.725739831482	918.073465492075	634.500593265823	660.279723097462	997.985485953187	586.571310023891	579.692152124761	1002.581819982960	498.825368778589	584.335653912520	970.987700766586	738.913777663937	383.932746925656	886.700373954700	622.934867639842	319.456580532458	974.655120904546	539.444988609041	377.020992881348	965.812650084974	452.262399695194	375.367331457351	892.643837627501	396.207264445319	373.389527673756	748.591338827420	362.940952270547	327.316220659330	724.788756019314	239.388372036998	389.582606432878	980.442326687016	409.317582915689	590.833370877127	915.077009393734	300.537692993520	649.310813252219	963.993308239588	209.380578165313	585.771599478659	839.807992691380	42.199515254660	549.781323883373	1009.323667240184	97.471995133360	590.682834453364	921.150322395384	36.687296936419	627.045238120356	1129.404660595362	45.350162724235	621.042766523278	528.675904323704	191.069926156380	430.422100038139	583.207549719330	139.244012213386	352.104298637481	688.148276552279	140.724674614584	373.191473164521	758.265908777837	31.671253671034	350.153031862434	895.687777070708	1083.295287676180	222.560039547928	1095.259320657263	914.185686176271	227.367185008661	856.887162073334	1084.613501267334	786.222093620541	958.576008687490	843.684078386009	784.239885934919	
